<?xml version="1.0" encoding="iso-8859-1"?>
<!-- Generator: Adobe Illustrator 19.0.0, SVG Export Plug-In . SVG Version: 6.00 Build 0)  -->
<svg version="1.1" id="Capa_1" xmlns="http://www.w3.org/2000/svg" xmlns:xlink="http://www.w3.org/1999/xlink" x="0px" y="0px"
	 viewBox="0 0 490 490" style="enable-background:new 0 0 490 490;" xml:space="preserve">
<g>
	<path d="M414.006,321.543c54.865-101.161,1.495-168.138-0.807-170.95l-11.843,9.72c0.493,0.598,49.197,61.729-0.807,153.933
		L414.006,321.543z"/>
	<path d="M430.365,336.466l13.458,7.297c69.116-127.405-0.105-214.196-0.807-215.063l-11.843,9.72
		C431.816,139.198,494.621,218.004,430.365,336.466z"/>
	<path d="M76.802,150.593c-2.303,2.811-55.672,69.788-0.807,170.95l13.458-7.297c-49.766-91.77-2.826-151.45-0.792-153.947
		L76.802,150.593z"/>
	<path d="M46.177,343.764l13.458-7.297c-64.016-118.029-3.409-194.846-0.792-198.061l-11.858-9.705
		C46.281,129.568-22.939,216.359,46.177,343.764z"/>
	<path d="M136.506,0v490h216.988V0H136.506z M322.869,30.625v55.951H167.131V30.625H322.869z M167.131,459.375V117.201h155.738
		v342.174H167.131z"/>
</g>
<g>
</g>
<g>
</g>
<g>
</g>
<g>
</g>
<g>
</g>
<g>
</g>
<g>
</g>
<g>
</g>
<g>
</g>
<g>
</g>
<g>
</g>
<g>
</g>
<g>
</g>
<g>
</g>
<g>
</g>
</svg>
